<?xml version="1.0" encoding="UTF-8"?>
<svg xmlns="http://www.w3.org/2000/svg" viewBox="0 0 700 360" width="700" height="360" font-family="system-ui, -apple-system, 'PingFang SC', 'Noto Sans SC', sans-serif">
<style>
  text { font-family: system-ui, -apple-system, 'PingFang SC', 'Noto Sans SC', sans-serif; }
</style>
<rect width="700" height="360" fill="#fafbfc"/>
  <defs>
    <marker id="a-64748b" markerWidth="8" markerHeight="6" refX="8" refY="3" orient="auto"><path d="M0,0 L8,3 L0,6 Z" fill="#64748b"/></marker>
    <marker id="a-2563eb" markerWidth="8" markerHeight="6" refX="8" refY="3" orient="auto"><path d="M0,0 L8,3 L0,6 Z" fill="#2563eb"/></marker>
    <marker id="a-16a34a" markerWidth="8" markerHeight="6" refX="8" refY="3" orient="auto"><path d="M0,0 L8,3 L0,6 Z" fill="#16a34a"/></marker>
    <marker id="a-dc2626" markerWidth="8" markerHeight="6" refX="8" refY="3" orient="auto"><path d="M0,0 L8,3 L0,6 Z" fill="#dc2626"/></marker>
    <marker id="a-9333ea" markerWidth="8" markerHeight="6" refX="8" refY="3" orient="auto"><path d="M0,0 L8,3 L0,6 Z" fill="#9333ea"/></marker>
    <marker id="a-d97706" markerWidth="8" markerHeight="6" refX="8" refY="3" orient="auto"><path d="M0,0 L8,3 L0,6 Z" fill="#d97706"/></marker>
    <marker id="a-0891b2" markerWidth="8" markerHeight="6" refX="8" refY="3" orient="auto"><path d="M0,0 L8,3 L0,6 Z" fill="#0891b2"/></marker>
    <marker id="a-db2777" markerWidth="8" markerHeight="6" refX="8" refY="3" orient="auto"><path d="M0,0 L8,3 L0,6 Z" fill="#db2777"/></marker>
  </defs>
  <rect x="0" y="0" width="700" height="36" fill="#2563eb"/>
  <text x="350" y="25" text-anchor="middle" font-size="15" font-weight="700" fill="white">中国去中心化 AI 生态</text>

  <text x="350" y="56" text-anchor="middle" font-size="11" fill="#64748b">监管驱动 + 行业联盟, 把去中心化 AI 拉回产业落地</text>

  <!-- Three categories: BSN/Chain | Frameworks | Privacy Computing -->

  <!-- Category 1: Blockchain infrastructure -->
  <g transform="translate(40,80)">
    <rect x="0" y="0" width="200" height="38" rx="4" fill="#dbeafe" stroke="#2563eb" stroke-width="1.4"/>
    <text x="100" y="22" text-anchor="middle" font-size="13" font-weight="700" fill="#2563eb">区块链基础设施</text>

    <g transform="translate(0,46)">
      <rect x="0" y="0" width="200" height="50" rx="3" fill="#fafbfc" stroke="#2563eb"/>
      <text x="100" y="20" text-anchor="middle" font-size="12" font-weight="600" fill="#475569">BSN</text>
      <text x="100" y="36" text-anchor="middle" font-size="10" fill="#64748b">国家信息中心</text>
      <text x="100" y="48" text-anchor="middle" font-size="10" fill="#64748b">跨链服务网络</text>
    </g>

    <g transform="translate(0,104)">
      <rect x="0" y="0" width="200" height="50" rx="3" fill="#fafbfc" stroke="#2563eb"/>
      <text x="100" y="20" text-anchor="middle" font-size="12" font-weight="600" fill="#475569">长安链 ChainMaker</text>
      <text x="100" y="36" text-anchor="middle" font-size="10" fill="#64748b">微芯研究院 + 北京</text>
      <text x="100" y="48" text-anchor="middle" font-size="10" fill="#64748b">自主可控联盟链</text>
    </g>

    <g transform="translate(0,162)">
      <rect x="0" y="0" width="200" height="50" rx="3" fill="#fafbfc" stroke="#2563eb"/>
      <text x="100" y="20" text-anchor="middle" font-size="12" font-weight="600" fill="#475569">蚂蚁链 / BSN-DDC</text>
      <text x="100" y="36" text-anchor="middle" font-size="10" fill="#64748b">蚂蚁集团</text>
      <text x="100" y="48" text-anchor="middle" font-size="10" fill="#64748b">金融政务场景</text>
    </g>
  </g>

  <!-- Category 2: Federated frameworks -->
  <g transform="translate(250,80)">
    <rect x="0" y="0" width="200" height="38" rx="4" fill="#dcfce7" stroke="#16a34a" stroke-width="1.4"/>
    <text x="100" y="22" text-anchor="middle" font-size="13" font-weight="700" fill="#16a34a">联邦学习框架</text>

    <g transform="translate(0,46)">
      <rect x="0" y="0" width="200" height="50" rx="3" fill="#fafbfc" stroke="#16a34a"/>
      <text x="100" y="20" text-anchor="middle" font-size="12" font-weight="600" fill="#475569">FATE</text>
      <text x="100" y="36" text-anchor="middle" font-size="10" fill="#64748b">微众银行 AI (WeBank)</text>
      <text x="100" y="48" text-anchor="middle" font-size="10" fill="#64748b">全球首个工业级 FL</text>
    </g>

    <g transform="translate(0,104)">
      <rect x="0" y="0" width="200" height="50" rx="3" fill="#fafbfc" stroke="#16a34a"/>
      <text x="100" y="20" text-anchor="middle" font-size="12" font-weight="600" fill="#475569">KubeFATE</text>
      <text x="100" y="36" text-anchor="middle" font-size="10" fill="#64748b">FATE 云原生发行版</text>
      <text x="100" y="48" text-anchor="middle" font-size="10" fill="#64748b">K8s / Helm 一键拉起</text>
    </g>

    <g transform="translate(0,162)">
      <rect x="0" y="0" width="200" height="50" rx="3" fill="#fafbfc" stroke="#16a34a"/>
      <text x="100" y="20" text-anchor="middle" font-size="12" font-weight="600" fill="#475569">云厂商 PAI/TI 平台</text>
      <text x="100" y="36" text-anchor="middle" font-size="10" fill="#64748b">阿里 / 腾讯 / 华为 / 字节</text>
      <text x="100" y="48" text-anchor="middle" font-size="10" fill="#64748b">集成 FATE 编排</text>
    </g>
  </g>

  <!-- Category 3: Privacy computing -->
  <g transform="translate(460,80)">
    <rect x="0" y="0" width="200" height="38" rx="4" fill="#fef3c7" stroke="#d97706" stroke-width="1.4"/>
    <text x="100" y="22" text-anchor="middle" font-size="13" font-weight="700" fill="#d97706">隐私计算平台</text>

    <g transform="translate(0,46)">
      <rect x="0" y="0" width="200" height="50" rx="3" fill="#fafbfc" stroke="#d97706"/>
      <text x="100" y="20" text-anchor="middle" font-size="12" font-weight="600" fill="#475569">蚂蚁 隐语 / 摩斯</text>
      <text x="100" y="36" text-anchor="middle" font-size="10" fill="#64748b">SecretFlow 开源</text>
      <text x="100" y="48" text-anchor="middle" font-size="10" fill="#64748b">MPC + HE + TEE 三合一</text>
    </g>

    <g transform="translate(0,104)">
      <rect x="0" y="0" width="200" height="50" rx="3" fill="#fafbfc" stroke="#d97706"/>
      <text x="100" y="20" text-anchor="middle" font-size="12" font-weight="600" fill="#475569">阿里 瑶光 / 隐语</text>
      <text x="100" y="36" text-anchor="middle" font-size="10" fill="#64748b">PAI 隐私计算插件</text>
      <text x="100" y="48" text-anchor="middle" font-size="10" fill="#64748b">金融联合风控落地</text>
    </g>

    <g transform="translate(0,162)">
      <rect x="0" y="0" width="200" height="50" rx="3" fill="#fafbfc" stroke="#d97706"/>
      <text x="100" y="20" text-anchor="middle" font-size="12" font-weight="600" fill="#475569">行业联盟 (WiFi FL)</text>
      <text x="100" y="36" text-anchor="middle" font-size="10" fill="#64748b">互联网金融 / 医联体</text>
      <text x="100" y="48" text-anchor="middle" font-size="10" fill="#64748b">跨机构联合建模</text>
    </g>
  </g>

  <!-- bottom summary -->
  <g transform="translate(40,330)">
    <rect x="0" y="-12" width="620" height="22" rx="3" fill="#eff6ff" stroke="#2563eb"/>
    <text x="310" y="3" text-anchor="middle" font-size="11" font-weight="700" fill="#475569">路径: 公链 → 联盟链, 代币 → 合规, 单打独斗 → 行业联盟</text>
  </g>

</svg>