<?xml version="1.0" encoding="UTF-8"?>
<svg xmlns="http://www.w3.org/2000/svg" viewBox="0 0 720 180" width="720" height="180" font-family="system-ui, -apple-system, 'PingFang SC', 'Noto Sans SC', sans-serif">
<style>
  text { font-family: system-ui, -apple-system, 'PingFang SC', 'Noto Sans SC', sans-serif; }
</style>
<rect width="720" height="180" fill="#fafbfc"/>
  <defs>
    <marker id="a-64748b" markerWidth="8" markerHeight="6" refX="8" refY="3" orient="auto"><path d="M0,0 L8,3 L0,6 Z" fill="#64748b"/></marker>
    <marker id="a-2563eb" markerWidth="8" markerHeight="6" refX="8" refY="3" orient="auto"><path d="M0,0 L8,3 L0,6 Z" fill="#2563eb"/></marker>
    <marker id="a-16a34a" markerWidth="8" markerHeight="6" refX="8" refY="3" orient="auto"><path d="M0,0 L8,3 L0,6 Z" fill="#16a34a"/></marker>
    <marker id="a-dc2626" markerWidth="8" markerHeight="6" refX="8" refY="3" orient="auto"><path d="M0,0 L8,3 L0,6 Z" fill="#dc2626"/></marker>
    <marker id="a-9333ea" markerWidth="8" markerHeight="6" refX="8" refY="3" orient="auto"><path d="M0,0 L8,3 L0,6 Z" fill="#9333ea"/></marker>
    <marker id="a-d97706" markerWidth="8" markerHeight="6" refX="8" refY="3" orient="auto"><path d="M0,0 L8,3 L0,6 Z" fill="#d97706"/></marker>
    <marker id="a-0891b2" markerWidth="8" markerHeight="6" refX="8" refY="3" orient="auto"><path d="M0,0 L8,3 L0,6 Z" fill="#0891b2"/></marker>
    <marker id="a-db2777" markerWidth="8" markerHeight="6" refX="8" refY="3" orient="auto"><path d="M0,0 L8,3 L0,6 Z" fill="#db2777"/></marker>
  </defs>
  <rect x="0" y="0" width="720" height="36" fill="#2563eb" rx="0"/>
  <text x="360" y="25" text-anchor="middle" font-size="15" font-weight="700" fill="white">EHR 多任务深度学习</text>
  <rect x="160" y="56" width="140" height="52" rx="5" fill="#2563eb" fill-opacity="0.12" stroke="#2563eb" stroke-width="1.5"/>
  <text x="230.0" y="87.0" text-anchor="middle" font-size="12" font-weight="600" fill="#2563eb">共享 backbone</text>
  <line x1="300" y1="82" x2="440" y2="82" stroke="#64748b" stroke-width="1.5" marker-end="url(#a-64748b)"/>
  <rect x="440" y="56" width="140" height="52" rx="5" fill="#2563eb" fill-opacity="0.12" stroke="#2563eb" stroke-width="1.5"/>
  <text x="510.0" y="87.0" text-anchor="middle" font-size="12" font-weight="600" fill="#2563eb">4 个任务头 (死亡 / 再入院 / 长</text>

</svg>